# xmcd CD database file
#
# Track frame offsets:
#	150
#	17670
#	35670
#	51380
#	66747
#	82663
#	100956
#	118861
#	136257
#	156412
#	174528
#	192297
#
# Disc length: 2802 seconds
#
# Revision: 0
# Processed by: cddbd v1.5.2PL0 Copyright (c) Steve Scherf et al.
# Submitted via: CDex 1.79
#
DISCID=a90af00c
DTITLE=Brad Cotter - Right On Time
DYEAR=2009
DGENRE=Country
TTITLE0=Somethin` out There
TTITLE1=Let Me Believe
TTITLE2=Love Works
TTITLE3=I`m Looking For A Church
TTITLE4=A Lot Of Catchin` Up To Do
TTITLE5=I Sing For Free
TTITLE6=My Mind`s Runnin` Away With You
TTITLE7=Preacher`s Daughter
TTITLE8=Wild Angels
TTITLE9=Free
TTITLE10=I Miss Me
TTITLE11=Richt On Time
EXTD=YEAR: 2009
EXTT0=
EXTT1=
EXTT2=
EXTT3=
EXTT4=
EXTT5=
EXTT6=
EXTT7=
EXTT8=
EXTT9=
EXTT10=
EXTT11=
PLAYORDER=
